<?xml version="1.0" encoding="UTF-8"?>
<svg version="1.1" xmlns="http://www.w3.org/2000/svg" width="2400" height="1842">
<path d="M0 0 C0.66 0 1.32 0 2 0 C5.49235933 52.11274386 8.98469615 104.22548922 12.47692871 156.33824158 C12.55608499 157.51944899 12.55608499 157.51944899 12.63684038 158.72451918 C13.78725161 175.89150174 14.93765926 193.05848453 16.08806327 210.22546757 C16.65327199 218.65983324 17.21848149 227.09419886 17.78369141 235.52856445 C17.86800149 236.786685 17.86800149 236.786685 17.9540148 238.07022213 C19.24347078 257.31217674 20.53293926 276.55413051 21.82244873 295.79608154 C21.90366245 297.0079461 21.90366245 297.0079461 21.98651685 298.24429276 C22.53077701 306.36569556 23.07503925 314.48709822 23.61930463 322.60850067 C24.7018424 338.76188994 25.78435536 354.91528087 26.8667746 371.06867807 C27.29897459 377.51857498 27.73117954 383.96847155 28.16338512 390.41836807 C28.27122265 392.02765275 28.37905987 393.63693745 28.48689678 395.24622217 C29.88331465 416.08539855 31.28006641 436.92455251 32.67726015 457.76367689 C33.74142734 473.63573296 34.80541969 489.50780075 35.86923975 505.3798801 C35.97455791 506.95121218 36.07987728 508.52254418 36.18519789 510.0938761 C39.11117447 553.74811369 42.02928238 597.40286831 44.93788055 641.05826725 C45.61138817 651.16672959 46.28540414 661.27515794 46.9597702 671.38356304 C47.05357194 672.78965199 47.14737363 674.19574093 47.24117526 675.60182988 C47.61027072 681.13448334 47.97937964 686.6671359 48.3485598 692.19978371 C49.4066107 708.05623564 50.46284015 723.91280687 51.51585674 739.76959409 C52.15924748 749.4559958 52.80469873 759.14225875 53.45182848 768.82841139 C53.82106174 774.35624026 54.1892914 779.88413133 54.55486488 785.41220355 C54.88698768 790.43439571 55.22180731 795.4564003 55.55882853 800.47826605 C55.67988702 802.28947207 55.79992854 804.1007464 55.91886073 805.91209329 C56.07991678 808.36285525 56.24462812 810.81334502 56.41027069 813.26380062 C56.45562629 813.96752534 56.50098189 814.67125006 56.54771191 815.39629977 C56.81715538 819.31580203 57.28890215 823.13624074 58 827 C148.37099798 813.32186926 238.1880153 797.67901865 372 753.0625 C372.86922089 752.7452597 373.73844177 752.42801941 374.63400269 752.10116577 C383.36062327 748.9087732 392.03911118 745.68691083 400.54858398 741.94311523 C404.47765918 740.43151106 407.78662688 740 412 740 C413.91112075 741.56082251 414.89550375 742.7910075 416 745 C416.69093788 754.29862249 415.31987866 763.4391327 413.97686768 772.61170959 C413.75626384 774.16189646 413.53639885 775.71218861 413.31720233 777.26257509 C412.71676557 781.49423347 412.10593917 785.7243346 411.49331474 789.9542433 C410.83272877 794.52836155 410.18191392 799.10387126 409.52987671 803.67921448 C408.25201112 812.63522159 406.96529436 821.58993556 405.67569497 830.54425973 C404.17094547 840.99535601 402.67564817 851.44779807 401.18087015 861.9003244 C398.51002245 880.57488392 395.83158059 899.248346 393.1484375 917.92114258 C390.55239014 935.98791786 387.96019084 954.05523854 385.37304688 972.12329102 C385.21401073 973.23395678 385.05497458 974.34462254 384.89111915 975.48894484 C384.25162159 979.95513104 383.6121497 984.42132092 382.97271223 988.88751573 C378.0541475 1023.24120247 373.13177531 1057.59434611 368.19810867 1091.94586754 C367.68351279 1095.52888991 367.16917511 1099.11194918 366.65509415 1102.69504547 C366.06085533 1106.83664335 365.4660519 1110.97815974 364.87076563 1115.1196072 C364.64620174 1116.68232418 364.42179738 1118.24506409 364.19756085 1119.80782808 C363.09003849 1127.52438366 361.97015634 1135.23848016 360.80294037 1142.94625664 C360.61730553 1144.17610139 360.4316707 1145.40594615 360.24041057 1146.67305893 C359.90158636 1148.90797249 359.55926589 1151.14236078 359.21232724 1153.37602907 C357.86457881 1162.26068665 357.30701535 1171.0198011 357 1180 C360.465 1173.565 360.465 1173.565 364 1167 C364.33 1167 364.66 1167 365 1167 C364.67 1172.94 364.34 1178.88 364 1185 C365.34191406 1182.29876953 365.34191406 1182.29876953 366.7109375 1179.54296875 C372.51468573 1167.88391206 378.33365132 1156.2418958 384.45068359 1144.74291992 C387.38897099 1139.20454357 390.21309748 1133.61592448 393 1128 C401.63158984 1110.63328801 410.87763783 1093.58853953 420.05018616 1076.50352478 C422.32190637 1072.26987238 424.58305927 1068.03069185 426.83984375 1063.7890625 C433.18411559 1051.87448617 439.61304244 1040.02064997 446.30175781 1028.29516602 C449.40627717 1022.84702957 452.43981233 1017.36845753 455.41040039 1011.84619141 C462.5194085 998.63782261 470.18625009 985.80145354 478 973 C478.6820752 971.87883789 479.36415039 970.75767578 480.06689453 969.60253906 C487.35248063 957.62957999 494.67923505 945.7106595 502.56689453 934.12402344 C504.321279 931.5238284 506.04932831 928.90685468 507.77734375 926.2890625 C514.87220308 915.55326491 522.06359713 904.95786222 529.77490234 894.65625 C531.38437402 892.48035206 532.94323875 890.27085159 534.50146484 888.05810547 C541.71340175 877.82362769 549.36378374 867.91949488 557 858 C557.61987793 857.1941748 558.23975586 856.38834961 558.87841797 855.55810547 C566.64003248 845.4829126 574.55991615 835.55106654 582.61035156 825.70556641 C584.50612176 823.37881824 586.37963521 821.03469693 588.25 818.6875 C592.00507959 813.98196458 595.80875985 809.31772817 599.63085938 804.66650391 C600.61707136 803.46609681 601.60267445 802.26518937 602.58789062 801.06396484 C609.06091435 793.1724242 615.55632098 785.30401239 622.16967773 777.52954102 C624.96538136 774.23838317 627.71500629 770.91438742 630.4375 767.5625 C634.35304193 762.75357239 638.36673582 758.03730928 642.41333008 753.33886719 C645.38094129 749.89273043 648.32708898 746.43039936 651.25146484 742.94750977 C655.88798396 737.42835433 660.62798925 732.03102545 665.515625 726.73046875 C667.48268178 724.56856201 669.41146518 722.38573065 671.328125 720.1796875 C674.9636397 716.01370838 678.70716683 711.96028787 682.5 707.9375 C683.18707031 707.20869629 683.87414063 706.47989258 684.58203125 705.72900391 C702.75436038 686.53925689 702.75436038 686.53925689 711.859375 678.859375 C714.29072103 676.74747589 716.63163285 674.55253842 718.97851562 672.34765625 C724.5800505 667.08615065 730.25295912 662.0226327 736.2578125 657.21875 C738.67254552 655.26494892 741.02903557 653.25790154 743.37573242 651.22338867 C752.53460231 643.31586352 762.24450862 636.14888578 772 629 C772.73798828 628.45666016 773.47597656 627.91332031 774.23632812 627.35351562 C812.39122902 599.37793512 855.24411371 579.79882046 902 572 C903.08667969 571.80535156 904.17335938 571.61070312 905.29296875 571.41015625 C939.54822748 567.62005913 971.09380489 576.48652497 998 598 C1009.42540031 607.44020792 1020.99940192 618.18558769 1030 630 C1030 630.66 1030 631.32 1030 632 C1172.31110529 624.93061491 1172.31110529 624.93061491 1383.0703125 548.45703125 C1393.55876768 536.22750652 1402.01986849 522.96597096 1410 509 C1410.5561499 508.04456299 1410.5561499 508.04456299 1411.12353516 507.06982422 C1417.86147166 495.44680319 1422.79677131 483.00745994 1427.89013672 470.6027832 C1428.84996737 468.35184732 1429.87627789 466.17267915 1431 464 C1432.65 464.66 1434.3 465.32 1436 466 C1437.74558749 512.419697 1423.23301442 558.67073548 1408 602 C1407.77272217 602.64704895 1407.54544434 603.2940979 1407.3112793 603.96075439 C1393.25691089 643.86189598 1375.84931902 682.97366338 1349 716 C1348.13664414 717.08848249 1347.27335903 718.17702111 1346.41015625 719.265625 C1333.57905247 735.17351175 1318.7091525 749.26030952 1302 761 C1301.04963867 761.67748291 1301.04963867 761.67748291 1300.08007812 762.36865234 C1226.2438982 814.71089748 1121.23596477 824.31773472 1023 834 C1022.26618103 834.07003235 1021.53236206 834.1400647 1020.77630615 834.21221924 C1008.89776004 835.33814276 997.20337689 836.13428251 985.2734375 835.9375 C982.37478316 835.99284424 979.98648456 836.31219492 977.1875 837 C963.96978558 840.0811564 949.17533532 838.99531655 937.23046875 832.4921875 C928.06539321 826.58366804 923.21886803 819.23245768 919.2890625 809.23046875 C912.00485777 790.97581023 900.93117362 774.44735687 882.53515625 766.03125 C866.46574773 759.49454145 850.27931954 761.0449575 834 766 C833.24025879 766.23074219 832.48051758 766.46148438 831.69775391 766.69921875 C803.82431432 775.39780299 777.86863911 789.3107574 754 806 C753.41702148 806.40428223 752.83404297 806.80856445 752.23339844 807.22509766 C735.28129232 819.00751191 719.39741205 832.18464169 703.69140625 845.56298828 C702.00707393 846.99399002 700.3165372 848.41737035 698.625 849.83984375 C690.17137991 856.97850993 682.07770589 864.4514091 674.04980469 872.06347656 C671.99222083 874.00734925 669.92396166 875.93912484 667.8515625 877.8671875 C652.67386059 891.94416807 652.67386059 891.94416807 638.640625 907.140625 C636.83852211 909.18300828 634.94061053 911.08901711 633 913 C629.85160949 916.10633186 626.92267579 919.32473292 624.0390625 922.67578125 C621.4524655 925.62410542 618.79160104 928.49911509 616.125 931.375 C611.03202297 936.87152972 606.00029935 942.41890363 601 948 C599.45847359 949.7084599 597.91680647 951.41679284 596.375 953.125 C593.15176747 956.70513025 589.96600883 960.31442764 586.8046875 963.94921875 C584.77041859 966.26088797 582.6977769 968.5353143 580.625 970.8125 C576.76977614 975.08310151 573.12417485 979.48773669 569.5078125 983.9609375 C566.6116867 987.47057282 563.62334675 990.89032613 560.625 994.3125 C555.8922356 999.72687602 551.35991644 1005.25442987 546.95581055 1010.93847656 C544.02526734 1014.71616749 541.01825002 1018.40590885 537.9375 1022.0625 C532.76520821 1028.23195777 527.85361628 1034.57982174 523 1041 C522.43619629 1041.74314453 521.87239258 1042.48628906 521.29150391 1043.25195312 C483.93135945 1092.53512478 452.58924383 1143.91751996 428.4335022 1200.91433716 C426.14959438 1206.30016646 423.8505163 1211.67950737 421.55078125 1217.05859375 C421.0848204 1218.14861191 420.61885956 1219.23863007 420.13877869 1220.36167908 C402.47476115 1261.61937482 383.8878212 1302.49048889 365.10679626 1343.24954224 C361.70172623 1350.6419111 358.31553539 1358.04285569 354.93353271 1365.44580078 C353.94250293 1367.61405419 352.95016665 1369.78170536 351.95751953 1371.94921875 C348.91948108 1378.58640523 345.89257941 1385.22806799 342.90196228 1391.88677979 C310.88826873 1463.15958657 310.88826873 1463.15958657 292 1471 C288.875 1471.5625 288.875 1471.5625 286 1471 C278.31970156 1465.14834405 276.21855446 1456.08641246 274.375 1447.0625 C274.16262695 1446.04905518 273.95025391 1445.03561035 273.73144531 1443.99145508 C271.97342423 1435.35875387 270.71849665 1426.77684533 270 1418 C269.88914062 1416.7521875 269.77828125 1415.504375 269.6640625 1414.21875 C266.64469338 1375.14627194 270.15376761 1335.52651989 273 1296.5625 C273.08358765 1295.39486115 273.16717529 1294.22722229 273.2532959 1293.02420044 C273.49449494 1289.68347576 273.7456514 1286.34365261 274 1283.00390625 C274.07083801 1282.0097168 274.14167603 1281.01552734 274.21466064 1279.99121094 C274.28819763 1279.05510986 274.36173462 1278.11900879 274.4375 1277.15454102 C274.49808594 1276.34839859 274.55867188 1275.54225616 274.62109375 1274.71168518 C275 1272 275 1272 275.9521246 1268.59784317 C277.35470296 1263.03933986 277.70904288 1257.42477425 278.14491272 1251.7228241 C278.29342553 1249.88661427 278.29342553 1249.88661427 278.4449386 1248.0133093 C278.71701853 1244.6324996 278.98305287 1241.25131402 279.24650395 1237.86982763 C279.53264762 1234.21629766 279.82664334 1230.56339846 280.11967468 1226.91041565 C280.62605234 1220.58448807 281.12750255 1214.25818553 281.625597 1207.93160057 C282.346714 1198.77251771 283.07545491 1189.61405383 283.80605011 1180.45572273 C284.99255869 1165.57986388 286.17312268 1150.70353956 287.34985352 1135.8269043 C288.49056836 1121.4057794 289.63375456 1106.98485426 290.78051758 1092.56420898 C290.85111462 1091.67643153 290.92171167 1090.78865408 290.99444801 1089.87397429 C291.48902396 1083.65490614 291.98375702 1077.43585049 292.47851562 1071.21679688 C293.02809547 1064.30838022 293.57761617 1057.39995885 294.12705994 1050.49153137 C294.19376701 1049.65283769 294.26047408 1048.81414401 294.32920258 1047.95003537 C295.25116498 1036.35768519 296.17109031 1024.76517502 297.08934642 1013.1725307 C297.45723044 1008.52882864 297.82542106 1003.88515089 298.19360001 999.24147221 C298.5343094 994.94365866 298.87446839 990.64580204 299.21418614 986.34791 C299.46965242 983.11794301 299.72593053 979.88804042 299.98207092 976.65812683 C300.0711766 975.52834056 300.16028228 974.39855428 300.25208813 973.23453206 C300.78822955 966.48511538 301.37109515 959.74141225 302 953 C301.19459274 953.20614929 300.38918549 953.41229858 299.55937195 953.62469482 C260.20075821 963.69315742 220.81429643 973.63189824 181.3125 983.125 C180.02564804 983.4342787 180.02564804 983.4342787 178.71279907 983.74980545 C151.32278296 990.33000478 123.9120022 996.82272151 96.49633789 1003.29510498 C68.66741018 1009.86544814 40.87366533 1016.57521217 13.09388733 1023.35014343 C10.45764362 1023.99298819 7.82120371 1024.63501752 5.18455505 1025.27619934 C-0.99729814 1026.77967886 -7.17740271 1028.28952998 -13.35400391 1029.81445312 C-15.62789316 1030.37124295 -17.90181707 1030.92789126 -20.17578125 1031.484375 C-21.2043071 1031.74083801 -22.23283295 1031.99730103 -23.29252625 1032.26153564 C-24.23924698 1032.49201599 -25.18596771 1032.72249634 -26.16137695 1032.95996094 C-26.98007767 1033.16200134 -27.79877838 1033.36404175 -28.64228821 1033.57220459 C-31.14377304 1034.02608692 -33.46306658 1034.02883163 -36 1034 C-41.5322232 953.52864194 -47.06334791 873.05720839 -52.58862305 792.58537292 C-52.67038782 791.39452971 -52.7521526 790.20368649 -52.8363951 788.97675711 C-54.61332013 763.09706798 -56.39004765 737.21736528 -58.16657168 711.33764862 C-59.03776885 698.6464019 -59.90900967 685.95515817 -60.78027344 673.26391602 C-60.86697431 672.00097896 -60.95367519 670.73804191 -61.04300337 669.43683404 C-63.85368859 628.49500393 -66.66725658 587.55337254 -69.48231821 546.61184312 C-72.37493402 504.54216325 -75.26464416 462.47228479 -78.15069382 420.40215394 C-78.55824817 414.46122796 -78.96583577 408.52030426 -79.3734436 402.57938194 C-79.45366633 401.41011314 -79.53388906 400.24084433 -79.61654278 399.03614313 C-80.90844464 380.20756279 -82.20341305 361.37919455 -83.49952593 342.55090367 C-84.80221584 323.62611634 -86.10168054 304.70110974 -87.39784789 285.77587453 C-88.16819667 274.52951391 -88.94102328 263.28332992 -89.7173914 252.03738319 C-90.23579305 244.52461916 -90.7509708 237.01163854 -91.26353392 229.49847393 C-91.55565495 225.217912 -91.84917082 220.93745851 -92.14662015 216.65726326 C-92.41754493 212.75834741 -92.6843326 208.85917065 -92.94791482 204.95975174 C-93.04305818 203.56273624 -93.13966794 202.16581958 -93.2379811 200.76902358 C-95.03169312 175.24227859 -95.03169312 175.24227859 -91.359375 168.59765625 C-90.78968994 167.53490479 -90.22000488 166.47215332 -89.63305664 165.37719727 C-89.01164795 164.28334717 -88.39023926 163.18949707 -87.75 162.0625 C-87.10356749 160.87886892 -86.45964703 159.69386279 -85.81811523 158.50756836 C-84.51916435 156.11624189 -83.20556573 153.73407508 -81.87646484 151.359375 C-80.20413738 148.36546062 -78.55754814 145.35989906 -76.92578125 142.34375 C-75.00110593 138.78912241 -73.06447337 135.24150964 -71.1171875 131.69921875 C-67.59677678 125.28130878 -64.13992827 118.82966025 -60.6875 112.375 C-60.37323059 111.78762054 -60.05896118 111.20024109 -59.73516846 110.59506226 C-58.13215347 107.59881802 -56.52973446 104.60225573 -54.92773438 101.60546875 C-45.80588293 84.54264776 -36.66058429 67.49248473 -27.48046875 50.4609375 C-25.10401614 46.05164813 -22.73208265 41.63996688 -20.36328125 37.2265625 C-13.6705739 24.76347389 -6.91884203 12.33913302 0 0 Z M355 1182 C356 1184 356 1184 356 1184 Z " fill="#0C3E2A" transform="translate(911,238)"/>
<path d="M0 0 C3.19331355 2.8739822 3.58624937 5.82816634 4 10 C3.58426992 12.72682597 3.0907285 15.28751014 2.4453125 17.95703125 C2.26887711 18.7240033 2.09244171 19.49097534 1.91065979 20.28118896 C1.32796855 22.79474913 0.72758309 25.30363968 0.125 27.8125 C-0.29203411 29.57736345 -0.7089433 31.34225641 -1.12573242 33.10717773 C-16.14614366 96.25885293 -36.91402782 158.41724257 -65 217 C-65.47115234 217.98613281 -65.94230469 218.97226563 -66.42773438 219.98828125 C-80.43348939 249.12174763 -97.00327632 276.93075095 -118.9765625 300.79296875 C-120.74448863 302.72130517 -122.43846046 304.68847978 -124.125 306.6875 C-132.40683872 316.16346431 -141.4679211 325.13394233 -151.359375 332.9140625 C-154.12290787 335.09708995 -156.77165098 337.38652976 -159.4375 339.6875 C-173.52905222 351.41225405 -188.93358378 361.23140124 -205 370 C-205.87462891 370.48178711 -206.74925781 370.96357422 -207.65039062 371.45996094 C-266.43521283 403.65963012 -332.97627741 418.03250314 -399.765625 418.203125 C-401.46614098 418.21010714 -403.16665673 418.21714807 -404.86717224 418.22424316 C-410.32811777 418.24366544 -415.78902374 418.24842733 -421.25 418.25 C-422.18355442 418.25058914 -423.11710884 418.25117828 -424.07895279 418.25178528 C-457.81017334 418.26679834 -491.34248743 417.38722963 -525 415 C-526.10307495 414.92267639 -527.2061499 414.84535278 -528.34265137 414.76568604 C-643.82108689 406.61900343 -643.82108689 406.61900343 -666.625 387.1875 C-669.66677143 383.10512256 -670.5072035 380.05484165 -670 375 C-667.41892535 366.44920055 -660.50047817 359.88013819 -653.4375 354.8125 C-652.79458008 354.349646 -652.15166016 353.88679199 -651.48925781 353.40991211 C-613.86994017 326.95134677 -567.19038673 312.73782696 -524 298 C-523.31639404 297.76639771 -522.63278809 297.53279541 -521.9284668 297.29211426 C-499.9544378 289.79070908 -477.8453505 282.69621395 -455.75 275.5625 C-455.03857094 275.33280266 -454.32714188 275.10310532 -453.59415436 274.86644745 C-440.4215909 270.61378035 -427.24869815 266.36213637 -414.06874084 262.13243103 C-389.23416191 254.15922638 -364.57690296 245.73509725 -340 237 C-338.57019806 236.49246185 -338.57019806 236.49246185 -337.11151123 235.97467041 C-206.16843536 189.48055327 -206.16843536 189.48055327 -87.65625 107.46875 C-85.52450377 105.48747998 -83.36209906 103.60792973 -81.125 101.75 C-55.55349156 79.47461116 -37.22348035 49.39999312 -21.89453125 19.578125 C-19.89066688 15.70303007 -17.87630918 11.83418017 -15.82421875 7.984375 C-15.35459717 7.09975586 -14.88497559 6.21513672 -14.40112305 5.30371094 C-10.67603484 -0.82103768 -6.97512445 -1.61922532 0 0 Z " fill="#0C3E2A" transform="translate(671,854)"/>
<path d="M0 0 C-6.13446292 13.10826797 -12.47284822 26.10391648 -18.95629883 39.04296875 C-20.43545042 41.99590828 -21.91030414 44.95096632 -23.38476562 47.90625 C-24.35911861 49.85429493 -25.33371986 51.8022157 -26.30859375 53.75 C-26.73184433 54.59852539 -27.15509491 55.44705078 -27.59117126 56.32128906 C-29.74811064 60.61938083 -31.93698035 64.89588815 -34.20899963 69.13430786 C-40.26997912 80.4625625 -45.79942179 91.97134966 -51.18257332 103.63485336 C-54.17086056 110.06475143 -57.23937789 116.4568831 -60.30127811 122.85197258 C-62.96723321 128.43083879 -65.5970003 134.02183673 -68.15551758 139.65087891 C-70.66142807 145.15971037 -73.25515895 150.618772 -75.91271782 156.05597305 C-76.89883629 158.11305429 -77.85331915 160.1856495 -78.7729969 162.2732811 C-85.67880805 177.87469086 -85.67880805 177.87469086 -92.62768555 181.2923851 C-98.88519149 183.32671626 -105.25969341 184.05549207 -111.78868675 184.66477585 C-116.67656102 185.17501368 -121.44537072 186.16213443 -126.25927734 187.13037109 C-128.1454648 187.48404242 -130.03232252 187.83415588 -131.9197998 188.18087769 C-132.87893784 188.35801174 -133.83807587 188.5351458 -134.82627869 188.71764755 C-135.81946609 188.90105824 -136.8126535 189.08446892 -137.8359375 189.2734375 C-139.99795746 189.67415042 -142.15994366 190.07504553 -144.32189941 190.47610474 C-148.93494993 191.33158712 -153.54817918 192.18609593 -158.16156006 193.03979492 C-169.35668778 195.11158811 -180.55078698 197.188927 -191.74487686 199.26631927 C-194.36273314 199.7521381 -196.98059796 200.2379106 -199.59847641 200.72360992 C-220.34977677 204.57381583 -241.09786535 208.4410343 -261.84375 212.3203125 C-262.53926484 212.45036666 -263.23477967 212.58042083 -263.95137072 212.71441603 C-278.21917927 215.38247204 -292.4865482 218.05287707 -306.75389481 220.72340202 C-311.79281753 221.66654847 -316.83176643 222.60955505 -321.87071228 223.55257797 C-326.3423974 224.38959182 -330.81398393 225.22713155 -335.28553391 226.06486702 C-337.36214273 226.45326107 -339.43894373 226.84062923 -341.51594925 227.22689629 C-347.17613956 228.27985944 -352.83215139 229.35145911 -358.48492432 230.44360352 C-360.96016374 230.9161818 -363.43540379 231.38875675 -365.91064453 231.86132812 C-367.07468245 232.08975151 -368.23872036 232.3181749 -369.43803215 232.5535202 C-371.05257632 232.85966625 -371.05257632 232.85966625 -372.69973755 233.17199707 C-373.6524309 233.3562751 -374.60512424 233.54055313 -375.58668709 233.73041534 C-378 234 -378 234 -381 233 C-314.9434177 60.32456868 -314.9434177 60.32456868 -272.26951694 40.74566746 C-258.44085654 34.86124349 -243.75810901 32.66173033 -228.875 31.5625 C-228.20846075 31.51151421 -227.54192149 31.46052842 -226.85518408 31.40799761 C-213.99146954 30.44578252 -201.12654665 30.05777685 -188.22871399 30.22694397 C-169.06772735 30.45941339 -151.47962647 28.62898365 -132.6328125 24.81640625 C-131.36999325 24.56146204 -130.107174 24.30651783 -128.80608749 24.04384804 C-122.58012733 22.77389225 -116.36336306 21.46473517 -110.15045166 20.13253784 C-100.06488883 17.98225411 -89.92659775 16.12185886 -79.78649521 14.24967384 C-74.62590231 13.29376484 -69.46910086 12.31800098 -64.3125 11.34082031 C-63.31049498 11.15113584 -62.30848995 10.96145136 -61.27612114 10.76601887 C-53.7013642 9.32934698 -46.13144958 7.86828905 -38.5625 6.40136719 C-36.36898671 5.97727969 -34.17546471 5.55323724 -31.98193359 5.12924194 C-27.83797077 4.32811053 -23.6952752 3.52081258 -19.55322266 2.70986938 C-17.69437792 2.34981982 -15.83549343 1.98997539 -13.9765625 1.63037109 C-12.71634277 1.38096582 -12.71634277 1.38096582 -11.43066406 1.12652206 C-7.5642396 0.38355871 -3.95963047 -0.20809 0 0 Z " fill="#0C3E2A" transform="translate(1990,1268)"/>
<path d="M0 0 C-6.13446292 13.10826797 -12.47284822 26.10391648 -18.95629883 39.04296875 C-20.43545042 41.99590828 -21.91030414 44.95096632 -23.38476562 47.90625 C-24.35911861 49.85429493 -25.33371986 51.8022157 -26.30859375 53.75 C-26.73184433 54.59852539 -27.15509491 55.44705078 -27.59117126 56.32128906 C-29.74811064 60.61938083 -31.93698035 64.89588815 -34.20899963 69.13430786 C-40.26997912 80.4625625 -45.79942179 91.97134966 -51.18257332 103.63485336 C-54.17086056 110.06475143 -57.23937789 116.4568831 -60.30127811 122.85197258 C-62.96723321 128.43083879 -65.5970003 134.02183673 -68.15551758 139.65087891 C-70.66142807 145.15971037 -73.25515895 150.618772 -75.91271782 156.05597305 C-76.89883629 158.11305429 -77.85331915 160.1856495 -78.7729969 162.2732811 C-85.67880805 177.87469086 -85.67880805 177.87469086 -92.62768555 181.2923851 C-98.88519149 183.32671626 -105.25969341 184.05549207 -111.78868675 184.66477585 C-116.67656102 185.17501368 -121.44537072 186.16213443 -126.25927734 187.13037109 C-128.1454648 187.48404242 -130.03232252 187.83415588 -131.9197998 188.18087769 C-132.87893784 188.35801174 -133.83807587 188.5351458 -134.82627869 188.71764755 C-135.81946609 188.90105824 -136.8126535 189.08446892 -137.8359375 189.2734375 C-139.99795746 189.67415042 -142.15994366 190.07504553 -144.32189941 190.47610474 C-148.93494993 191.33158712 -153.54817918 192.18609593 -158.16156006 193.03979492 C-169.35668778 195.11158811 -180.55078698 197.188927 -191.74487686 199.26631927 C-194.36273314 199.7521381 -196.98059796 200.2379106 -199.59847641 200.72360992 C-220.34977677 204.57381583 -241.09786535 208.4410343 -261.84375 212.3203125 C-262.53926484 212.45036666 -263.23477967 212.58042083 -263.95137072 212.71441603 C-278.21917927 215.38247204 -292.4865482 218.05287707 -306.75389481 220.72340202 C-311.79281753 221.66654847 -316.83176643 222.60955505 -321.87071228 223.55257797 C-326.3423974 224.38959182 -330.81398393 225.22713155 -335.28553391 226.06486702 C-337.36214273 226.45326107 -339.43894373 226.84062923 -341.51594925 227.22689629 C-347.17613956 228.27985944 -352.83215139 229.35145911 -358.48492432 230.44360352 C-360.96016374 230.9161818 -363.43540379 231.38875675 -365.91064453 231.86132812 C-367.07468245 232.08975151 -368.23872036 232.3181749 -369.43803215 232.5535202 C-371.05257632 232.85966625 -371.05257632 232.85966625 -372.69973755 233.17199707 C-373.6524309 233.3562751 -374.60512424 233.54055313 -375.58668709 233.73041534 C-378 234 -378 234 -381 233 C-314.9434177 60.32456868 -314.9434177 60.32456868 -272.26951694 40.74566746 C-258.44085654 34.86124349 -243.75810901 32.66173033 -228.875 31.5625 C-228.20846075 31.51151421 -227.54192149 31.46052842 -226.85518408 31.40799761 C-213.99146954 30.44578252 -201.12654665 30.05777685 -188.22871399 30.22694397 C-169.06772735 30.45941339 -151.47962647 28.62898365 -132.6328125 24.81640625 C-131.36999325 24.56146204 -130.107174 24.30651783 -128.80608749 24.04384804 C-122.58012733 22.77389225 -116.36336306 21.46473517 -110.15045166 20.13253784 C-100.06488883 17.98225411 -89.92659775 16.12185886 -79.78649521 14.24967384 C-74.62590231 13.29376484 -69.46910086 12.31800098 -64.3125 11.34082031 C-63.31049498 11.15113584 -62.30848995 10.96145136 -61.27612114 10.76601887 C-53.7013642 9.32934698 -46.13144958 7.86828905 -38.5625 6.40136719 C-36.36898671 5.97727969 -34.17546471 5.55323724 -31.98193359 5.12924194 C-27.83797077 4.32811053 -23.6952752 3.52081258 -19.55322266 2.70986938 C-17.69437792 2.34981982 -15.83549343 1.98997539 -13.9765625 1.63037109 C-12.71634277 1.38096582 -12.71634277 1.38096582 -11.43066406 1.12652206 C-7.5642396 0.38355871 -3.95963047 -0.20809 0 0 Z " fill="#0C3E2A" transform="translate(2400,316)"/>
<path d="M0 0 C-1.65987785 5.01304144 -4.5589107 9.03388059 -7.51953125 13.34765625 C-8.08209122 14.17620117 -8.64465118 15.00474609 -9.22425842 15.85839844 C-10.444359 17.65496136 -11.66645752 19.45016869 -12.89031982 21.24417114 C-16.17600067 26.06168475 -19.44589725 30.88987123 -22.71484375 35.71875 C-23.73218597 37.22103905 -23.73218597 37.22103905 -24.77008057 38.75367737 C-34.07871497 52.5229446 -43.18412783 66.42671883 -52.29415894 80.32781982 C-53.93023239 82.81593585 -55.57859088 85.29555227 -57.22827148 87.7746582 C-58.84583897 90.21209003 -60.37438614 92.64062726 -61.85180664 95.16870117 C-66.60201629 103.02887331 -73.7265574 106.27081681 -81.6875 110.1875 C-83.12572608 110.91917432 -84.56255604 111.6535988 -85.99804688 112.390625 C-88.92246972 113.8897174 -91.85223426 115.37744692 -94.78662109 116.85693359 C-100.91763822 119.95996123 -106.95542668 123.23224954 -113 126.5 C-123.66357239 132.22609836 -134.34928378 137.90973958 -145.04101562 143.58300781 C-154.37184734 148.53470039 -163.69179121 153.50586971 -173 158.5 C-183.6662364 164.22275241 -194.35047987 169.91063537 -205.04302979 175.58401489 C-214.33222622 180.51327979 -223.60943514 185.46391519 -232.875 190.4375 C-243.95617246 196.38473476 -255.06560271 202.27711909 -266.18395996 208.15447998 C-276.98274129 213.86370399 -287.76083373 219.60955098 -298.5234375 225.38671875 C-307.33633058 230.11509746 -316.16536071 234.81241266 -325 239.5 C-335.01144224 244.81220911 -345.01310607 250.14173499 -355 255.5 C-365.6662364 261.22275241 -376.35047987 266.91063537 -387.04302979 272.58401489 C-396.33222622 277.51327979 -405.60943514 282.46391519 -414.875 287.4375 C-425.95617246 293.38473476 -437.06560271 299.27711909 -448.18395996 305.15447998 C-458.98274129 310.86370399 -469.76083373 316.60955098 -480.5234375 322.38671875 C-489.33633132 327.11509786 -498.16542049 331.81229896 -507 336.5 C-520.49866715 343.66339568 -533.97541114 350.86664025 -547.44140625 358.09130859 C-553.24136494 361.20268565 -559.04363748 364.30974585 -564.84558105 367.41741943 C-567.85025356 369.02683843 -570.85480984 370.63647436 -573.859375 372.24609375 C-575.57291667 373.1640625 -577.28645833 374.08203125 -579 375 C-579.495 373.515 -579.495 373.515 -580 372 C-578.3671875 369.49609375 -578.3671875 369.49609375 -575.875 366.4375 C-574.93883293 365.26507097 -574.00537843 364.0904724 -573.07421875 362.9140625 C-572.57325684 362.28274414 -572.07229492 361.65142578 -571.55615234 361.00097656 C-568.83874559 357.50680245 -566.26660394 353.90931283 -563.6875 350.3125 C-563.14005127 349.55114746 -562.59260254 348.78979492 -562.02856445 348.00537109 C-560.90799725 346.44613665 -559.78812715 344.886401 -558.66894531 343.32617188 C-555.97232368 339.56762727 -553.26876936 335.8141024 -550.5625 332.0625 C-550.02906982 331.32298096 -549.49563965 330.58346191 -548.94604492 329.8215332 C-544.41561582 323.55223378 -539.82756131 317.32639627 -535.23071289 311.10571289 C-531.28592163 305.76163306 -527.3811882 300.39040785 -523.5 295 C-521.89778736 292.78045266 -520.29481058 290.56146003 -518.69140625 288.34277344 C-517.51011406 286.70656098 -516.33056509 285.06908919 -515.15234375 283.43066406 C-513.27501112 280.82379303 -511.3884345 278.2238361 -509.5 275.625 C-508.92443359 274.82191406 -508.34886719 274.01882813 -507.75585938 273.19140625 C-506.93311523 272.06412109 -506.93311523 272.06412109 -506.09375 270.9140625 C-505.61615234 270.2535791 -505.13855469 269.5930957 -504.64648438 268.91259766 C-500.90784712 264.5697026 -496.29809584 261.90929272 -491.26953125 259.3046875 C-490.61490402 258.96003448 -489.96027679 258.61538147 -489.28581238 258.26028442 C-487.13058162 257.12694215 -484.97154908 256.00104863 -482.8125 254.875 C-481.28551025 254.07348231 -479.75882266 253.27138873 -478.23242188 252.46875 C-475.0618756 250.80212838 -471.89004491 249.13798963 -468.71728516 247.47558594 C-462.16619251 244.04070049 -455.63105704 240.57577962 -449.09579468 237.11090088 C-445.56462463 235.23916223 -442.03224715 233.36970494 -438.5 231.5 C-437.08332764 230.75001075 -435.66666097 230.00001075 -434.25 229.25 C-431.41666667 227.75 -428.58333333 226.25 -425.75 224.75 C-425.04876007 224.37875504 -424.34752014 224.00751007 -423.62503052 223.62501526 C-422.20826312 222.87496253 -420.79149472 222.12491166 -419.37472534 221.37486267 C-415.83459181 219.5006848 -412.29447545 217.62647451 -408.75439453 215.75219727 C-402.36111564 212.36734992 -395.96771152 208.9827402 -389.57366943 205.59933472 C-375.04325808 197.91054771 -360.51609697 190.21578339 -346 182.5 C-330.76990558 174.40470346 -315.52734925 166.33306546 -300.28222656 158.26611328 C-293.89530137 154.88637295 -287.50917356 151.50512647 -281.12298584 148.12399292 C-277.58202325 146.24926686 -274.04100901 144.37463837 -270.5 142.5 C-269.08333309 141.75000047 -267.66666642 141.00000047 -266.25 140.25 C-245 129 -245 129 -223.75 117.75 C-222.69817032 117.19314766 -222.69817032 117.19314766 -221.62509155 116.62504578 C-220.20812268 115.87488758 -218.79115084 115.12473499 -217.37417603 114.37458801 C-213.83710877 112.50205436 -210.30009282 110.62942392 -206.76318359 108.7565918 C-200.33339365 105.35207066 -193.90320636 101.94830996 -187.47114563 98.54808044 C-183.85551428 96.63669193 -180.24018905 94.72472493 -176.625 92.8125 C-175.56310959 92.25086655 -175.56310959 92.25086655 -174.47976685 91.67788696 C-163.63010059 85.9380024 -152.80787854 80.14876474 -141.99609375 74.33789062 C-133.37132536 69.71178795 -124.69482141 65.1916411 -116.00073242 60.69750977 C-109.36809307 57.25912506 -102.79402695 53.72884361 -96.25 50.125 C-87.12081005 45.09816756 -77.88522029 40.29505632 -68.61682129 35.5322876 C-59.81610146 31.00719217 -51.09254784 26.36296147 -42.4284668 21.58056641 C-33.19614275 16.50898868 -23.82957044 11.70044638 -14.45507812 6.8984375 C-13.54607002 6.43173141 -13.54607002 6.43173141 -12.61869812 5.95559692 C-10.96448786 5.10662843 -9.30906497 4.26002394 -7.65356445 3.41357422 C-1.24559585 0 -1.24559585 0 0 0 Z " fill="#0C3E2A" transform="translate(2398,1415)"/>
</svg>
